<?xml version="1.0" encoding="UTF-8"?>
<svg version="1.1" xmlns="http://www.w3.org/2000/svg" width="124" height="124">
<path d="M0 0 C6.6 0 13.2 0 20 0 C23.66059603 8.57625355 26.93971252 17.19679005 30 26 C33.99554817 17.54787887 36.94146881 8.82803321 40 0 C46.93 0 53.86 0 61 0 C61.02464156 7.10245508 61.042832 14.20488551 61.05493164 21.30737305 C61.05997349 23.72567172 61.06680678 26.14396733 61.07543945 28.56225586 C61.08751157 32.02979283 61.09322963 35.49728966 61.09765625 38.96484375 C61.10281754 40.05337143 61.10797882 41.14189911 61.11329651 42.26341248 C61.11337204 43.26437454 61.11344757 44.26533661 61.11352539 45.29663086 C61.115746 46.18265488 61.11796661 47.06867889 61.12025452 47.98155212 C61 50 61 50 60 51 C57.30345146 51.07319621 54.63308542 51.09242537 51.9375 51.0625 C50.79958008 51.05573242 50.79958008 51.05573242 49.63867188 51.04882812 C47.75908129 51.0370068 45.87953101 51.01907078 44 51 C43.67 46.38 43.34 41.76 43 37 C43 41.29 43 45.58 43 50 C42.67 50 42.34 50 42 50 C41.505 47.03 41.505 47.03 41 44 C38.85529281 47.08268982 38.85529281 47.08268982 37 51 C32.38 51 27.76 51 23 51 C20.525 43.575 20.525 43.575 18 36 C17.67 40.95 17.34 45.9 17 51 C11.39 51 5.78 51 0 51 C0 34.17 0 17.34 0 0 Z M41 38 C42 41 42 41 42 41 Z " fill="#E59003" transform="translate(60,37)"/>
<path d="M0 0 C6.64570879 4.60931729 10.8409095 9.63920644 12.5625 17.6015625 C13.58347469 25.15252116 12.78567774 31.84302214 8.484375 38.26171875 C4.03321445 43.68531753 -0.98040062 47.61676403 -8 49 C-17.23048816 49.74531892 -23.98101696 48.67587859 -31.25 42.8125 C-37.35545957 37.0668907 -39.63994634 31.141187 -40.08984375 22.80078125 C-39.839942 15.01036584 -37.26419604 9.30264701 -31.90234375 3.69140625 C-23.23452782 -4.01529662 -10.23847105 -5.90439435 0 0 Z M-22 17 C-22.63076607 19.89993441 -22.63076607 19.89993441 -22.5 23 C-22.5103125 24.03125 -22.520625 25.0625 -22.53125 26.125 C-21.87289728 29.68784999 -20.89365931 30.86492151 -18 33 C-14.90880005 33.78912675 -12.11834077 33.62938988 -9 33 C-6.17677203 31.32783723 -6.17677203 31.32783723 -5 28 C-4.31289083 23.1106758 -4.07301768 18.73305391 -6.4375 14.3125 C-12.25323388 11.33370948 -17.96275119 11.59297035 -22 17 Z " fill="#D64B0D" transform="translate(43,39)"/>
<path d="M0 0 C0.33 0 0.66 0 1 0 C1 16.5 1 33 1 50 C0.67 50 0.34 50 0 50 C-0.85305238 33.25425286 -1.07087214 16.73814431 0 0 Z " fill="#DF7008" transform="translate(58,37)"/>
<path d="M0 0 C6.6 0 13.2 0 20 0 C20 0.33 20 0.66 20 1 C13.4 1 6.8 1 0 1 C0 0.67 0 0.34 0 0 Z " fill="#D9600A" transform="translate(60,35)"/>
<path d="M0 0 C6.27 0 12.54 0 19 0 C19 0.33 19 0.66 19 1 C12.73 1 6.46 1 0 1 C0 0.67 0 0.34 0 0 Z " fill="#E38E04" transform="translate(101,35)"/>
<path d="M0 0 C2.49388574 4.98777148 1.88836125 6.66983248 1 12 C0.67 12 0.34 12 0 12 C0 8.04 0 4.08 0 0 Z " fill="#E69601" transform="translate(78,75)"/>
<path d="M0 0 C2.97 0 5.94 0 9 0 C9 0.33 9 0.66 9 1 C6.03 1 3.06 1 0 1 C0 0.67 0 0.34 0 0 Z " fill="#DB6508" transform="translate(25,89)"/>
<path d="M0 0 C2.97 0 5.94 0 9 0 C9 0.33 9 0.66 9 1 C6.03 1 3.06 1 0 1 C0 0.67 0 0.34 0 0 Z " fill="#D9580C" transform="translate(25,70)"/>
<path d="M0 0 C2.97 0 5.94 0 9 0 C9 0.33 9 0.66 9 1 C6.03 1 3.06 1 0 1 C0 0.67 0 0.34 0 0 Z " fill="#D03010" transform="translate(25,34)"/>
<path d="M0 0 C1 4 1 4 1 4 Z " fill="#D23610" transform="translate(2,66)"/>
<path d="M0 0 C1 4 1 4 1 4 Z " fill="#D9540C" transform="translate(36,56)"/>
<path d="M0 0 C1 4 1 4 1 4 Z " fill="#D33D11" transform="translate(22,56)"/>
<path d="M0 0 C1 4 1 4 1 4 Z " fill="#D02A13" transform="translate(2,54)"/>
<path d="" fill="#E7A001" transform="translate(0,0)"/>
<path d="" fill="#EBAA00" transform="translate(0,0)"/>
<path d="" fill="#DE6E08" transform="translate(0,0)"/>
<path d="" fill="#DA5A0A" transform="translate(0,0)"/>
<path d="" fill="#D5450D" transform="translate(0,0)"/>
<path d="" fill="#DB620A" transform="translate(0,0)"/>
<path d="" fill="#E49104" transform="translate(0,0)"/>
<path d="M0 0 C3 1 3 1 3 1 Z " fill="#D5440E" transform="translate(31,53)"/>
<path d="M0 0 C3 1 3 1 3 1 Z " fill="#D33D10" transform="translate(25,53)"/>
<path d="" fill="#E18705" transform="translate(0,0)"/>
<path d="" fill="#DF6E08" transform="translate(0,0)"/>
<path d="M0 0 C3 1 3 1 3 1 Z " fill="#D02B13" transform="translate(21,35)"/>
<path d="M0 0 C2 1 2 1 2 1 Z " fill="#DE7009" transform="translate(36,88)"/>
<path d="M0 0 C2 1 2 1 2 1 Z " fill="#DA5C0A" transform="translate(21,88)"/>
<path d="M0 0 C2 1 2 1 2 1 Z " fill="#DF7107" transform="translate(39,87)"/>
<path d="M0 0 C2 1 2 1 2 1 Z " fill="#D8580C" transform="translate(18,87)"/>
<path d="" fill="#EAAA00" transform="translate(0,0)"/>
<path d="" fill="#E9A501" transform="translate(0,0)"/>
<path d="M0 0 C2 1 2 1 2 1 Z " fill="#DE7107" transform="translate(41,86)"/>
<path d="M0 0 C2 1 2 1 2 1 Z " fill="#D7550C" transform="translate(16,86)"/>
<path d="" fill="#DD7508" transform="translate(0,0)"/>
<path d="" fill="#D6440E" transform="translate(0,0)"/>
<path d="" fill="#DE7108" transform="translate(0,0)"/>
<path d="" fill="#D33C11" transform="translate(0,0)"/>
<path d="" fill="#E59102" transform="translate(0,0)"/>
<path d="" fill="#E48A03" transform="translate(0,0)"/>
<path d="" fill="#E69202" transform="translate(0,0)"/>
<path d="" fill="#E38504" transform="translate(0,0)"/>
<path d="" fill="#E68F05" transform="translate(0,0)"/>
<path d="" fill="#E28004" transform="translate(0,0)"/>
<path d="" fill="#DB5F0B" transform="translate(0,0)"/>
<path d="" fill="#CF2814" transform="translate(0,0)"/>
<path d="" fill="#E48C03" transform="translate(0,0)"/>
<path d="" fill="#DF7A07" transform="translate(0,0)"/>
<path d="" fill="#E48903" transform="translate(0,0)"/>
<path d="" fill="#D8550D" transform="translate(0,0)"/>
<path d="" fill="#D12614" transform="translate(0,0)"/>
<path d="" fill="#DF7507" transform="translate(0,0)"/>
<path d="" fill="#E48804" transform="translate(0,0)"/>
<path d="" fill="#DF7006" transform="translate(0,0)"/>
<path d="" fill="#E28505" transform="translate(0,0)"/>
<path d="M0 0 C2 1 2 1 2 1 Z " fill="#D4420E" transform="translate(41,37)"/>
<path d="M0 0 C2 1 2 1 2 1 Z " fill="#CE2813" transform="translate(16,37)"/>
<path d="M0 0 C2 1 2 1 2 1 Z " fill="#D5400F" transform="translate(39,36)"/>
<path d="M0 0 C2 1 2 1 2 1 Z " fill="#CE2713" transform="translate(18,36)"/>
<path d="M0 0 C2 1 2 1 2 1 Z " fill="#D33B11" transform="translate(36,35)"/>
<path d="" fill="#DF7308" transform="translate(0,0)"/>
<path d="" fill="#DA540D" transform="translate(0,0)"/>
<path d="" fill="#E17307" transform="translate(0,0)"/>
<path d="" fill="#D9510C" transform="translate(0,0)"/>
<path d="" fill="#E07208" transform="translate(0,0)"/>
<path d="" fill="#D74D0E" transform="translate(0,0)"/>
<path d="" fill="#DE7208" transform="translate(0,0)"/>
<path d="" fill="#D74D0F" transform="translate(0,0)"/>
<path d="" fill="#E07508" transform="translate(0,0)"/>
<path d="" fill="#D84D10" transform="translate(0,0)"/>
<path d="" fill="#E07508" transform="translate(0,0)"/>
<path d="" fill="#D84B10" transform="translate(0,0)"/>
<path d="" fill="#DF7407" transform="translate(0,0)"/>
<path d="" fill="#D64A0F" transform="translate(0,0)"/>
<path d="" fill="#DF7507" transform="translate(0,0)"/>
<path d="" fill="#D5470E" transform="translate(0,0)"/>
<path d="" fill="#DE7207" transform="translate(0,0)"/>
<path d="" fill="#D6430F" transform="translate(0,0)"/>
<path d="" fill="#DF7107" transform="translate(0,0)"/>
<path d="" fill="#D53F10" transform="translate(0,0)"/>
<path d="" fill="#DB5D0A" transform="translate(0,0)"/>
<path d="" fill="#D74F0C" transform="translate(0,0)"/>
<path d="" fill="#DA5E0A" transform="translate(0,0)"/>
<path d="" fill="#D74B0E" transform="translate(0,0)"/>
<path d="" fill="#D74C0E" transform="translate(0,0)"/>
<path d="" fill="#D43B11" transform="translate(0,0)"/>
<path d="" fill="#D5490D" transform="translate(0,0)"/>
<path d="" fill="#D43B0F" transform="translate(0,0)"/>
<path d="" fill="#E17F05" transform="translate(0,0)"/>
<path d="" fill="#DA5B0B" transform="translate(0,0)"/>
<path d="" fill="#CE2714" transform="translate(0,0)"/>
<path d="" fill="#D8570C" transform="translate(0,0)"/>
<path d="" fill="#CF2614" transform="translate(0,0)"/>
<path d="" fill="#D8540C" transform="translate(0,0)"/>
<path d="" fill="#CF2513" transform="translate(0,0)"/>
<path d="" fill="#D9510D" transform="translate(0,0)"/>
<path d="" fill="#D02614" transform="translate(0,0)"/>
<path d="" fill="#D74E0D" transform="translate(0,0)"/>
<path d="" fill="#CF2515" transform="translate(0,0)"/>
<path d="" fill="#D74E0D" transform="translate(0,0)"/>
<path d="" fill="#CD2616" transform="translate(0,0)"/>
<path d="" fill="#D74C0F" transform="translate(0,0)"/>
<path d="" fill="#CF2614" transform="translate(0,0)"/>
<path d="" fill="#D64B0E" transform="translate(0,0)"/>
<path d="" fill="#CD2513" transform="translate(0,0)"/>
<path d="" fill="#D6490E" transform="translate(0,0)"/>
<path d="" fill="#CC2512" transform="translate(0,0)"/>
<path d="" fill="#D34810" transform="translate(0,0)"/>
<path d="" fill="#D12714" transform="translate(0,0)"/>
<path d="" fill="#D96A08" transform="translate(0,0)"/>
</svg>
