<?xml version="1.0" encoding="UTF-8"?>
<svg version="1.1" xmlns="http://www.w3.org/2000/svg" width="124" height="124">
<path d="M0 0 C1.37285156 0.61875 1.37285156 0.61875 2.7734375 1.25 C18.74558646 9.1242247 28.27294672 22.48147441 34 39 C37.95907256 53.5754391 34.91402637 69.4169098 28.375 82.625 C19.78881003 97.38722135 6.16380693 107.15273756 -10.2578125 111.61328125 C-26.98337132 113.9720139 -42.83552009 111.54562777 -57 102 C-68.96947907 92.7714992 -78.83594644 79.34510703 -81 64 C-82.28074031 45.00986813 -79.01082094 29.0211055 -66.3125 14.25 C-49.88733989 -2.9853698 -22.12958642 -10.69708105 0 0 Z " fill="#DF7209" transform="translate(85,8)"/>
<path d="M0 0 C4.95 0 9.9 0 15 0 C16.5061914 3.76846697 18.00517546 7.53952694 19.5 11.3125 C19.92925781 12.38435547 20.35851562 13.45621094 20.80078125 14.56054688 C21.40986328 16.10258789 21.40986328 16.10258789 22.03125 17.67578125 C22.40830078 18.62364502 22.78535156 19.57150879 23.17382812 20.5480957 C24 23 24 23 24 26 C24.66 26 25.32 26 26 26 C26.185625 24.865625 26.37125 23.73125 26.5625 22.5625 C28.26731103 14.70774102 31.84123956 7.35636456 35 0 C39.62 0 44.24 0 49 0 C49 13.86 49 27.72 49 42 C45.04 42 41.08 42 37 42 C36.505 33.09 36.505 33.09 36 24 C34.02 29.94 32.04 35.88 30 42 C26.7 42 23.4 42 20 42 C19.01540929 39.6062703 18.03721297 37.2102493 17.0625 34.8125 C16.78470703 34.13896484 16.50691406 33.46542969 16.22070312 32.77148438 C15.95322266 32.11083984 15.68574219 31.45019531 15.41015625 30.76953125 C15.16402588 30.16729736 14.91789551 29.56506348 14.66430664 28.94458008 C14 27 14 27 13 22 C12.67 28.6 12.34 35.2 12 42 C8.04 42 4.08 42 0 42 C0 28.14 0 14.28 0 0 Z " fill="#FDF9F4" transform="translate(60,41)"/>
<path d="M0 0 C5.50280261 3.14445863 9.70342682 6.30212414 11.62109375 12.578125 C12.97576293 19.24357691 12.90067045 25.97490705 9.4765625 31.9609375 C6.45377085 35.78535345 2.39971965 38.58139018 -1.9375 40.75 C-9.21689671 41.41871098 -16.24468767 42.01208028 -22.25 37.33984375 C-22.806875 36.81519531 -23.36375 36.29054687 -23.9375 35.75 C-24.535625 35.21503906 -25.13375 34.68007812 -25.75 34.12890625 C-29.65283456 29.9279385 -30.36103995 26.37882027 -30.5 20.6875 C-30.19214297 14.41658611 -29.8349342 9.7524137 -25.3203125 5.07421875 C-18.07596131 -1.43947899 -9.47388681 -3.81876935 0 0 Z " fill="#FDFBF9" transform="translate(43.9375,42.25)"/>
<path d="M0 0 C2.75329021 1.79562405 4.52627461 3.05254922 6 6 C6.53118252 10.91996928 6.75105553 14.77327597 4.125 19.0625 C1.64253077 21.32592782 0.57589109 21.9214694 -2.75 22.375 C-7.30278706 21.84967842 -8.77905482 20.22094518 -12 17 C-13.52199443 12.43401671 -13.74716734 8.60107286 -11.6875 4.1875 C-8.26924792 -0.24356751 -5.36058936 -0.55454373 0 0 Z " fill="#DD6812" transform="translate(38,51)"/>
<path d="M0 0 C1.13763209 4.33951595 1.82906452 7.45492522 -0.375 11.5625 C-0.91125 12.366875 -1.4475 13.17125 -2 14 C-2.68096422 15.32608822 -3.35330586 16.65686601 -4 18 C-5.35814777 13.9255567 -3.94745762 11.18531884 -2.5625 7.3125 C-2.31951172 6.61060547 -2.07652344 5.90871094 -1.82617188 5.18554688 C-1.2255056 3.45421468 -0.61380281 1.72671863 0 0 Z " fill="#E89A2A" transform="translate(95,65)"/>
<path d="M0 0 C0.99 0 1.98 0 3 0 C3.99 3.63 4.98 7.26 6 11 C2.35293732 8.56862488 2.17333353 7.10666735 1 3 C0.67 2.01 0.34 1.02 0 0 Z " fill="#E7952C" transform="translate(74,72)"/>
<path d="M0 0 C6.6 0 13.2 0 20 0 C20 0.33 20 0.66 20 1 C13.4 1 6.8 1 0 1 C0 0.67 0 0.34 0 0 Z " fill="#D8500D" transform="translate(52,2)"/>
<path d="M0 0 C5.94 0 11.88 0 18 0 C18 0.33 18 0.66 18 1 C12.06 1 6.12 1 0 1 C0 0.67 0 0.34 0 0 Z " fill="#E68F03" transform="translate(53,121)"/>
<path d="M0 0 C0.33 0 0.66 0 1 0 C1 5.94 1 11.88 1 18 C0.67 18 0.34 18 0 18 C0 12.06 0 6.12 0 0 Z " fill="#E58F03" transform="translate(121,53)"/>
<path d="M0 0 C0.33 0 0.66 0 1 0 C1 5.94 1 11.88 1 18 C0.67 18 0.34 18 0 18 C0 12.06 0 6.12 0 0 Z " fill="#D7500D" transform="translate(2,53)"/>
<path d="M0 0 C4 1 4 1 4 1 Z " fill="#E79403" transform="translate(72,120)"/>
<path d="M0 0 C4 1 4 1 4 1 Z " fill="#E58A04" transform="translate(48,120)"/>
<path d="M0 0 C3 1 3 1 3 1 Z " fill="#E79602" transform="translate(77,119)"/>
<path d="M0 0 C3 1 3 1 3 1 Z " fill="#E48704" transform="translate(44,119)"/>
<path d="M0 0 C3 1 3 1 3 1 Z " fill="#E38505" transform="translate(41,118)"/>
<path d="" fill="#DA5C0B" transform="translate(0,0)"/>
<path d="" fill="#E69402" transform="translate(0,0)"/>
<path d="" fill="#DA590B" transform="translate(0,0)"/>
<path d="" fill="#E48904" transform="translate(0,0)"/>
<path d="" fill="#D6490E" transform="translate(0,0)"/>
<path d="" fill="#E38704" transform="translate(0,0)"/>
<path d="" fill="#D6460F" transform="translate(0,0)"/>
<path d="M0 0 C3 1 3 1 3 1 Z " fill="#DB5F0C" transform="translate(80,5)"/>
<path d="M0 0 C3 1 3 1 3 1 Z " fill="#D4470F" transform="translate(41,5)"/>
<path d="M0 0 C3 1 3 1 3 1 Z " fill="#D95C0B" transform="translate(77,4)"/>
<path d="M0 0 C3 1 3 1 3 1 Z " fill="#D5470E" transform="translate(44,4)"/>
<path d="M0 0 C3 1 3 1 3 1 Z " fill="#D9590C" transform="translate(73,3)"/>
<path d="M0 0 C3 1 3 1 3 1 Z " fill="#D6480E" transform="translate(48,3)"/>
<path d="M0 0 C2 1 2 1 2 1 Z " fill="#E79603" transform="translate(80,118)"/>
<path d="M0 0 C2 1 2 1 2 1 Z " fill="#E79701" transform="translate(83,117)"/>
<path d="M0 0 C2 1 2 1 2 1 Z " fill="#E38305" transform="translate(39,117)"/>
<path d="M0 0 C2 1 2 1 2 1 Z " fill="#E69801" transform="translate(85,116)"/>
<path d="M0 0 C2 1 2 1 2 1 Z " fill="#E28306" transform="translate(37,116)"/>
<path d="M0 0 C2 1 2 1 2 1 Z " fill="#E89A02" transform="translate(87,115)"/>
<path d="M0 0 C2 1 2 1 2 1 Z " fill="#E38109" transform="translate(35,115)"/>
<path d="M0 0 C2 1 2 1 2 1 Z " fill="#E89702" transform="translate(89,114)"/>
<path d="M0 0 C2 1 2 1 2 1 Z " fill="#E28007" transform="translate(33,114)"/>
<path d="M0 0 C2 1 2 1 2 1 Z " fill="#E89902" transform="translate(91,113)"/>
<path d="M0 0 C2 1 2 1 2 1 Z " fill="#E27F06" transform="translate(31,113)"/>
<path d="M0 0 C2 1 2 1 2 1 Z " fill="#E89901" transform="translate(94,111)"/>
<path d="M0 0 C2 1 2 1 2 1 Z " fill="#E07D07" transform="translate(28,111)"/>
<path d="M0 0 C2 1 2 1 2 1 Z " fill="#E69803" transform="translate(98,108)"/>
<path d="M0 0 C2 1 2 1 2 1 Z " fill="#DF7B0A" transform="translate(24,108)"/>
<path d="" fill="#E79A01" transform="translate(0,0)"/>
<path d="" fill="#DE6C09" transform="translate(0,0)"/>
<path d="" fill="#E89901" transform="translate(0,0)"/>
<path d="" fill="#DD6809" transform="translate(0,0)"/>
<path d="" fill="#E89902" transform="translate(0,0)"/>
<path d="" fill="#DD670A" transform="translate(0,0)"/>
<path d="" fill="#E89802" transform="translate(0,0)"/>
<path d="" fill="#DD670D" transform="translate(0,0)"/>
<path d="" fill="#E69802" transform="translate(0,0)"/>
<path d="" fill="#DC640A" transform="translate(0,0)"/>
<path d="" fill="#E79801" transform="translate(0,0)"/>
<path d="" fill="#DB610A" transform="translate(0,0)"/>
<path d="" fill="#E79702" transform="translate(0,0)"/>
<path d="" fill="#DB5F0C" transform="translate(0,0)"/>
<path d="" fill="#E79502" transform="translate(0,0)"/>
<path d="" fill="#E38505" transform="translate(0,0)"/>
<path d="" fill="#D74810" transform="translate(0,0)"/>
<path d="" fill="#E38205" transform="translate(0,0)"/>
<path d="" fill="#D5440E" transform="translate(0,0)"/>
<path d="" fill="#E38206" transform="translate(0,0)"/>
<path d="" fill="#D54410" transform="translate(0,0)"/>
<path d="" fill="#E28005" transform="translate(0,0)"/>
<path d="" fill="#D44410" transform="translate(0,0)"/>
<path d="" fill="#E27E05" transform="translate(0,0)"/>
<path d="" fill="#D54310" transform="translate(0,0)"/>
<path d="" fill="#E27C07" transform="translate(0,0)"/>
<path d="" fill="#D44211" transform="translate(0,0)"/>
<path d="M0 0 C2 1 2 1 2 1 Z " fill="#DD6D0B" transform="translate(94,12)"/>
<path d="M0 0 C2 1 2 1 2 1 Z " fill="#D24310" transform="translate(28,12)"/>
<path d="M0 0 C2 1 2 1 2 1 Z " fill="#DC6809" transform="translate(91,10)"/>
<path d="M0 0 C2 1 2 1 2 1 Z " fill="#D4420F" transform="translate(31,10)"/>
<path d="M0 0 C2 1 2 1 2 1 Z " fill="#DD670B" transform="translate(89,9)"/>
<path d="M0 0 C2 1 2 1 2 1 Z " fill="#D4410E" transform="translate(33,9)"/>
<path d="M0 0 C2 1 2 1 2 1 Z " fill="#DC650D" transform="translate(87,8)"/>
<path d="M0 0 C2 1 2 1 2 1 Z " fill="#D54410" transform="translate(35,8)"/>
<path d="M0 0 C2 1 2 1 2 1 Z " fill="#DC640C" transform="translate(85,7)"/>
<path d="M0 0 C2 1 2 1 2 1 Z " fill="#D54412" transform="translate(37,7)"/>
<path d="M0 0 C2 1 2 1 2 1 Z " fill="#DB600C" transform="translate(83,6)"/>
<path d="M0 0 C2 1 2 1 2 1 Z " fill="#D5440F" transform="translate(39,6)"/>
<path d="" fill="#E89A02" transform="translate(0,0)"/>
<path d="" fill="#E27E06" transform="translate(0,0)"/>
<path d="" fill="#E89B01" transform="translate(0,0)"/>
<path d="" fill="#E17A06" transform="translate(0,0)"/>
<path d="" fill="#E79B02" transform="translate(0,0)"/>
<path d="" fill="#E17A07" transform="translate(0,0)"/>
<path d="" fill="#E99A01" transform="translate(0,0)"/>
<path d="" fill="#E17706" transform="translate(0,0)"/>
<path d="" fill="#E99A01" transform="translate(0,0)"/>
<path d="" fill="#E17706" transform="translate(0,0)"/>
<path d="" fill="#E89B01" transform="translate(0,0)"/>
<path d="" fill="#E07707" transform="translate(0,0)"/>
<path d="" fill="#E89A02" transform="translate(0,0)"/>
<path d="" fill="#E17607" transform="translate(0,0)"/>
<path d="" fill="#E89A01" transform="translate(0,0)"/>
<path d="" fill="#E07507" transform="translate(0,0)"/>
<path d="" fill="#E89A01" transform="translate(0,0)"/>
<path d="" fill="#E07307" transform="translate(0,0)"/>
<path d="" fill="#E89A01" transform="translate(0,0)"/>
<path d="" fill="#E07207" transform="translate(0,0)"/>
<path d="" fill="#E89A01" transform="translate(0,0)"/>
<path d="" fill="#E07107" transform="translate(0,0)"/>
<path d="" fill="#E89B00" transform="translate(0,0)"/>
<path d="" fill="#E06F07" transform="translate(0,0)"/>
<path d="" fill="#E79903" transform="translate(0,0)"/>
<path d="" fill="#DE6E0A" transform="translate(0,0)"/>
<path d="" fill="#E89901" transform="translate(0,0)"/>
<path d="" fill="#DE6C09" transform="translate(0,0)"/>
<path d="" fill="#E89A01" transform="translate(0,0)"/>
<path d="" fill="#DD6909" transform="translate(0,0)"/>
<path d="" fill="#E28105" transform="translate(0,0)"/>
<path d="" fill="#D5430F" transform="translate(0,0)"/>
<path d="" fill="#E27E06" transform="translate(0,0)"/>
<path d="" fill="#D44210" transform="translate(0,0)"/>
<path d="" fill="#E27B07" transform="translate(0,0)"/>
<path d="" fill="#D5410F" transform="translate(0,0)"/>
<path d="" fill="#E27B08" transform="translate(0,0)"/>
<path d="" fill="#D64212" transform="translate(0,0)"/>
<path d="" fill="#E27805" transform="translate(0,0)"/>
<path d="" fill="#D5400E" transform="translate(0,0)"/>
<path d="" fill="#E17806" transform="translate(0,0)"/>
<path d="" fill="#D53F0F" transform="translate(0,0)"/>
<path d="" fill="#E07707" transform="translate(0,0)"/>
<path d="" fill="#D44110" transform="translate(0,0)"/>
<path d="" fill="#E07608" transform="translate(0,0)"/>
<path d="" fill="#D44111" transform="translate(0,0)"/>
<path d="" fill="#E17508" transform="translate(0,0)"/>
<path d="" fill="#D44111" transform="translate(0,0)"/>
<path d="" fill="#E07508" transform="translate(0,0)"/>
<path d="" fill="#D34110" transform="translate(0,0)"/>
<path d="" fill="#DF7307" transform="translate(0,0)"/>
<path d="" fill="#D44010" transform="translate(0,0)"/>
<path d="" fill="#E07207" transform="translate(0,0)"/>
<path d="" fill="#D4400F" transform="translate(0,0)"/>
<path d="" fill="#DF7007" transform="translate(0,0)"/>
<path d="" fill="#D4400F" transform="translate(0,0)"/>
<path d="" fill="#DF6F07" transform="translate(0,0)"/>
<path d="" fill="#D4400F" transform="translate(0,0)"/>
<path d="" fill="#DF6E0A" transform="translate(0,0)"/>
<path d="" fill="#D54110" transform="translate(0,0)"/>
<path d="" fill="#DF6C08" transform="translate(0,0)"/>
<path d="" fill="#D44110" transform="translate(0,0)"/>
<path d="" fill="#DD6A0A" transform="translate(0,0)"/>
<path d="" fill="#D44310" transform="translate(0,0)"/>
</svg>
